<?xml version="1.0" encoding="utf-8"?>
<svg version="1.1" xmlns="http://www.w3.org/2000/svg" x="0px" y="0px"
	 viewBox="0 100 820 820" style="enable-background:new 0 0 820 820;" xml:space="preserve">
<style type="text/css">
	.st0{fill:#F3D8B2;}
	.st1{fill:#FFFFFF;}
	.st2{fill:#4C92BB;}
	.st3{fill:#312783;}
</style>
<path class="st0" d="M477.83,279.06c122.94,124.93-37.98,498.1-142.33,497.41c-83.19-0.55-141.48-238.76-156.11-356.6
	c-10.95-88.22,1.27-119.43,16.84-139.27C252.5,208.85,410.96,211.11,477.83,279.06z"/>
<path class="st1" d="M120.89,148.94"/>
<path class="st2" d="M679.89,603.51c-18.18,47.27-40.48,82.51-57.82,106.11c-26.26,35.74-48.86,66.51-90.47,87.75
	c-42.96,21.92-84.58,22.66-108.15,21.09c-80.29-30.93-133.19-70.62-148.29-92.51c-10.47-15.17-17.69-31.29-17.69-31.29
	c-5.79-12.93-9.33-24.66-11.56-34.01c-1.77-52.82-3.6-109.39-5.44-169.37c-1.04-34.03-1.51-51.37,1.36-67.34
	c6-33.43,27.45-91.03,117-150.33c18.08-7.79,52.11-19.47,95.23-16.33c68.23,4.98,112.81,43.7,126.52,56.63
	c22.94,20,88.17,82.24,103.39,182.81C690.55,540.14,685.78,577.39,679.89,603.51z"/>
<path class="st3" d="M458.46,285.24c48.24,4.82,76.74,6.97,106.79,28.57c29.58,21.25,43.17,48.71,54.42,72.1
	c10.4,21.64,40.62,86.78,27.21,170.73C628.72,670.37,544.32,732.3,517.64,751.87c-4.79,3.52-64.21,46.08-146.25,55.78
	c-34.83,4.12-50.4-0.57-60.54-9.52c-10.07-8.89-11.97-19.5-25.85-72.1c-11.22-42.54-8.67-30.67-12.24-45.57
	c-12.57-52.49-20.56-101.22-26.53-138.08c-6.01-37.12-18.13-113.34-23.81-210.87c-1.86-31.91-1.54-40.6,4.76-49.66
	C245.73,255.21,286.44,268.05,458.46,285.24z"/>
</svg>
